<svg width="376" height="228" viewBox="0 0 376 228" fill="none" xmlns="http://www.w3.org/2000/svg">
<g filter="url(#filter0_df)">
<circle cx="119" cy="114" r="104" fill="white"/>
</g>
<circle cx="143" cy="114" r="104" fill="black"/>
<path d="M110.827 137.464C107.077 137.464 103.713 136.594 100.735 134.854C97.7967 133.075 95.496 130.601 93.8334 127.43C92.1707 124.259 91.3394 120.663 91.3394 116.642C91.3394 112.621 92.1707 109.025 93.8334 105.854C95.496 102.683 97.7967 100.228 100.735 98.488C103.713 96.7093 107.077 95.82 110.827 95.82C114.578 95.82 117.923 96.7093 120.861 98.488C123.839 100.228 126.159 102.683 127.821 105.854C129.484 109.025 130.315 112.621 130.315 116.642C130.315 120.663 129.484 124.259 127.821 127.43C126.159 130.601 123.839 133.075 120.861 134.854C117.923 136.594 114.578 137.464 110.827 137.464ZM110.827 136.42C114.23 136.42 117.323 135.627 120.107 134.042C122.891 132.418 125.076 130.117 126.661 127.14C128.285 124.124 129.097 120.625 129.097 116.642C129.097 112.659 128.285 109.179 126.661 106.202C125.076 103.186 122.891 100.885 120.107 99.3C117.323 97.676 114.23 96.864 110.827 96.864C107.425 96.864 104.331 97.676 101.547 99.3C98.7634 100.885 96.5594 103.186 94.9354 106.202C93.35 109.179 92.5574 112.659 92.5574 116.642C92.5574 120.625 93.35 124.124 94.9354 127.14C96.5594 130.117 98.7634 132.418 101.547 134.042C104.331 135.627 107.425 136.42 110.827 136.42ZM149.919 137.406C147.328 137.406 145.066 136.942 143.133 136.014C141.238 135.086 139.769 133.868 138.725 132.36C137.681 130.813 137.062 129.151 136.869 127.372H138.029C138.222 128.725 138.706 130.079 139.479 131.432C140.291 132.785 141.548 133.945 143.249 134.912C144.989 135.879 147.212 136.362 149.919 136.362C152.084 136.362 153.998 135.956 155.661 135.144C157.324 134.293 158.6 133.172 159.489 131.78C160.378 130.388 160.823 128.841 160.823 127.14C160.823 124.936 160.32 123.196 159.315 121.92C158.31 120.605 157.053 119.639 155.545 119.02C154.076 118.401 152.084 117.763 149.571 117.106C146.942 116.41 144.834 115.714 143.249 115.018C141.664 114.322 140.31 113.259 139.189 111.828C138.106 110.359 137.565 108.387 137.565 105.912C137.565 104.133 138.048 102.471 139.015 100.924C140.02 99.3387 141.432 98.082 143.249 97.154C145.105 96.226 147.212 95.762 149.571 95.762C151.968 95.762 154.037 96.1873 155.777 97.038C157.517 97.8887 158.87 98.9713 159.837 100.286C160.842 101.562 161.5 102.915 161.809 104.346H160.649C160.378 103.225 159.818 102.084 158.967 100.924C158.116 99.764 156.898 98.7973 155.313 98.024C153.728 97.212 151.814 96.806 149.571 96.806C147.599 96.806 145.782 97.1927 144.119 97.966C142.495 98.7007 141.18 99.764 140.175 101.156C139.208 102.509 138.725 104.095 138.725 105.912C138.725 108.155 139.228 109.953 140.233 111.306C141.277 112.621 142.553 113.607 144.061 114.264C145.569 114.883 147.58 115.521 150.093 116.178C152.722 116.874 154.81 117.57 156.357 118.266C157.942 118.923 159.276 119.967 160.359 121.398C161.442 122.79 161.983 124.704 161.983 127.14C161.983 128.841 161.519 130.485 160.591 132.07C159.702 133.655 158.348 134.951 156.531 135.956C154.714 136.923 152.51 137.406 149.919 137.406ZM206.187 97.328V137H205.027V100.17L188.613 137H187.453L170.981 100.17V137H169.821V97.328H170.981L188.033 135.492L205.027 97.328H206.187ZM234.077 137.464C230.327 137.464 226.963 136.594 223.985 134.854C221.047 133.075 218.746 130.601 217.083 127.43C215.421 124.259 214.589 120.663 214.589 116.642C214.589 112.621 215.421 109.025 217.083 105.854C218.746 102.683 221.047 100.228 223.985 98.488C226.963 96.7093 230.327 95.82 234.077 95.82C237.828 95.82 241.173 96.7093 244.111 98.488C247.089 100.228 249.409 102.683 251.071 105.854C252.734 109.025 253.565 112.621 253.565 116.642C253.565 120.663 252.734 124.259 251.071 127.43C249.409 130.601 247.089 133.075 244.111 134.854C241.173 136.594 237.828 137.464 234.077 137.464ZM234.077 136.42C237.48 136.42 240.573 135.627 243.357 134.042C246.141 132.418 248.326 130.117 249.911 127.14C251.535 124.124 252.347 120.625 252.347 116.642C252.347 112.659 251.535 109.179 249.911 106.202C248.326 103.186 246.141 100.885 243.357 99.3C240.573 97.676 237.48 96.864 234.077 96.864C230.675 96.864 227.581 97.676 224.797 99.3C222.013 100.885 219.809 103.186 218.185 106.202C216.6 109.179 215.807 112.659 215.807 116.642C215.807 120.625 216.6 124.124 218.185 127.14C219.809 130.117 222.013 132.418 224.797 134.042C227.581 135.627 230.675 136.42 234.077 136.42ZM273.169 137.406C270.578 137.406 268.316 136.942 266.383 136.014C264.488 135.086 263.019 133.868 261.975 132.36C260.931 130.813 260.312 129.151 260.119 127.372H261.279C261.472 128.725 261.956 130.079 262.729 131.432C263.541 132.785 264.798 133.945 266.499 134.912C268.239 135.879 270.462 136.362 273.169 136.362C275.334 136.362 277.248 135.956 278.911 135.144C280.574 134.293 281.85 133.172 282.739 131.78C283.628 130.388 284.073 128.841 284.073 127.14C284.073 124.936 283.57 123.196 282.565 121.92C281.56 120.605 280.303 119.639 278.795 119.02C277.326 118.401 275.334 117.763 272.821 117.106C270.192 116.41 268.084 115.714 266.499 115.018C264.914 114.322 263.56 113.259 262.439 111.828C261.356 110.359 260.815 108.387 260.815 105.912C260.815 104.133 261.298 102.471 262.265 100.924C263.27 99.3387 264.682 98.082 266.499 97.154C268.355 96.226 270.462 95.762 272.821 95.762C275.218 95.762 277.287 96.1873 279.027 97.038C280.767 97.8887 282.12 98.9713 283.087 100.286C284.092 101.562 284.75 102.915 285.059 104.346H283.899C283.628 103.225 283.068 102.084 282.217 100.924C281.366 99.764 280.148 98.7973 278.563 98.024C276.978 97.212 275.064 96.806 272.821 96.806C270.849 96.806 269.032 97.1927 267.369 97.966C265.745 98.7007 264.43 99.764 263.425 101.156C262.458 102.509 261.975 104.095 261.975 105.912C261.975 108.155 262.478 109.953 263.483 111.306C264.527 112.621 265.803 113.607 267.311 114.264C268.819 114.883 270.83 115.521 273.343 116.178C275.972 116.874 278.06 117.57 279.607 118.266C281.192 118.923 282.526 119.967 283.609 121.398C284.692 122.79 285.233 124.704 285.233 127.14C285.233 128.841 284.769 130.485 283.841 132.07C282.952 133.655 281.598 134.951 279.781 135.956C277.964 136.923 275.76 137.406 273.169 137.406Z" fill="white"/>
<defs>
<filter id="filter0_df" x="5" y="0" width="228" height="228" filterUnits="userSpaceOnUse" color-interpolation-filters="sRGB">
<feFlood flood-opacity="0" result="BackgroundImageFix"/>
<feColorMatrix in="SourceAlpha" type="matrix" values="0 0 0 0 0 0 0 0 0 0 0 0 0 0 0 0 0 0 127 0"/>
<feOffset dy="4"/>
<feGaussianBlur stdDeviation="2"/>
<feColorMatrix type="matrix" values="0 0 0 0 0 0 0 0 0 0 0 0 0 0 0 0 0 0 0.25 0"/>
<feBlend mode="normal" in2="BackgroundImageFix" result="effect1_dropShadow"/>
<feBlend mode="normal" in="SourceGraphic" in2="effect1_dropShadow" result="shape"/>
<feGaussianBlur stdDeviation="5" result="effect2_foregroundBlur"/>
</filter>
</defs>
</svg>
